<svg width="100" height="99" viewBox="0 0 100 99" fill="none" xmlns="http://www.w3.org/2000/svg">
<g clip-path="url(#clip0)">
<path d="M87.671 86.6155L66.6148 77.8172L87.688 69.0764C90.9349 67.7261 92.4821 63.9904 91.1468 60.7275C89.801 57.4689 86.0772 55.9099 82.8367 57.2559L49.9987 70.8804L17.1926 57.1729C13.9541 55.8204 10.224 57.3667 8.87393 60.6253C7.52811 63.8839 9.06467 67.6239 12.3074 68.9785L33.3699 77.781L12.2862 86.5218C9.04136 87.8721 7.49208 91.6078 8.83366 94.8707C9.84885 97.3349 12.2162 98.8237 14.7171 98.8237C15.5246 98.8237 16.3469 98.6703 17.1396 98.336L49.9839 84.7136L82.7901 98.4169C83.5891 98.7491 84.4156 98.9089 85.2274 98.9089C87.7219 98.9089 90.0871 97.4265 91.1023 94.9644C92.4503 91.7122 90.9158 87.968 87.671 86.6155Z" fill="#DB1414"/>
<path d="M49.9886 62.7403C64.8562 62.7403 76.9007 50.6301 76.9007 35.6979C76.9007 31.9494 75.2031 27.0018 72.664 21.6986C72.3334 21.0021 71.5619 20.623 70.8096 20.7891C70.0593 20.9531 69.5146 21.6176 69.5019 22.3908C69.3959 28.0029 67.8911 31.8216 66.0367 34.4008C65.8163 34.7033 65.4136 34.7949 65.0851 34.6202C64.7629 34.4434 64.6124 34.0516 64.7481 33.7023C66.0515 30.2519 65.4284 25.1255 58.782 17.9096C52.5573 11.1538 51.0229 5.8463 51.3132 1.97002C51.3726 1.20115 50.9444 0.477012 50.2408 0.161798C49.5414 -0.157676 48.717 0.00632084 48.1829 0.562205C41.8289 7.19235 34.0062 18.0395 36.2761 29.0273C36.3715 29.4937 36.1256 29.958 35.6848 30.1327C35.2461 30.3095 34.748 30.1455 34.4958 29.7408C32.8766 27.1211 31.4015 23.2044 31.9462 18.0374C32.0331 17.1961 31.5223 16.4081 30.719 16.1546C29.9179 15.8991 29.0447 16.2484 28.6399 16.9895C25.7151 22.2821 23.085 28.9272 23.085 35.7C23.0807 50.6322 35.1253 62.7403 49.9886 62.7403Z" fill="#DB1414"/>
</g>
<defs>
<clipPath id="clip0">
<rect width="98.427" height="98.9111" fill="white" transform="translate(0.775391)"/>
</clipPath>
</defs>
</svg>
