<svg width="40" height="40" viewBox="0 0 40 40" fill="none" xmlns="http://www.w3.org/2000/svg">
<path d="M39.5113 37.1556L28.1364 25.7807C30.3397 23.0591 31.6663 19.6008 31.6663 15.8342C31.6663 7.10427 24.563 0.000976562 15.8331 0.000976562C7.10321 0.000976562 0 7.10419 0 15.8341C0 24.564 7.10329 31.6673 15.8332 31.6673C19.5998 31.6673 23.0581 30.3407 25.7797 28.1374L37.1546 39.5122C37.4796 39.8372 37.9063 40.0006 38.333 40.0006C38.7597 40.0006 39.1863 39.8372 39.5113 39.5122C40.163 38.8606 40.163 37.8073 39.5113 37.1556ZM15.8332 28.334C8.93991 28.334 3.33333 22.7274 3.33333 15.8341C3.33333 8.94081 8.93991 3.33423 15.8332 3.33423C22.7265 3.33423 28.3331 8.94081 28.3331 15.8341C28.3331 22.7274 22.7264 28.334 15.8332 28.334Z" fill="#DB1414"/>
</svg>
