<svg width="125" height="80" viewBox="0 0 125 80" fill="none" xmlns="http://www.w3.org/2000/svg">
<g clip-path="url(#clip0)">
<path d="M37.5887 13.0448V12.711C37.5887 11.3882 35.9064 10.3159 33.831 10.3159H26.746C24.6705 10.3159 22.9883 11.3882 22.9883 12.711V12.8759L37.5887 13.0448Z" fill="#EDC963"/>
<path d="M101.265 12.8759V12.711C101.265 11.3882 99.5832 10.3159 97.5078 10.3159H90.4227C88.3473 10.3159 86.665 11.3882 86.665 12.711V13.0448L101.265 12.8759Z" fill="#EDC963"/>
<path d="M101.265 15.7499V12.8758C99.0903 12.4025 96.7589 12.144 94.3318 12.144C91.6298 12.144 89.0455 12.4631 86.665 13.0446V15.9187L101.265 15.7499Z" fill="#E7B93E"/>
<path d="M29.9219 15.0182C32.6239 15.0182 35.2082 15.3373 37.5887 15.9189V12.711C37.5887 11.3882 35.9064 10.3159 33.831 10.3159H26.746C24.6705 10.3159 22.9883 11.3882 22.9883 12.711V15.75C25.1634 15.2767 27.4949 15.0182 29.9219 15.0182Z" fill="#EDC963"/>
<path d="M37.5887 15.919V13.0451C35.2082 12.4635 32.6242 12.1445 29.9219 12.1445C27.4949 12.1445 25.1634 12.403 22.9883 12.8763V15.7504L37.5887 15.919Z" fill="#E7B93E"/>
<path d="M8.20663 66.4715C19.461 69.6521 24.9676 64.8844 27.4301 60.2307L33.3831 48.9331C33.3833 48.9331 33.3836 48.9332 33.3838 48.9334L33.3836 48.9332L34.6809 47.908C34.6809 47.908 38.3527 49.1745 41.4721 49.1745C45.1922 49.1745 48.5647 48.2314 51.0396 46.7016C51.2689 46.56 51.579 46.484 51.8984 46.484H72.3561C72.6755 46.484 72.9857 46.56 73.215 46.7016C75.6901 48.2314 79.0626 49.1745 82.7824 49.1745C85.9019 49.1745 89.5739 47.908 89.5739 47.908L90.8712 48.9331L96.821 60.225C99.2784 64.8827 108.926 68.6266 116.048 66.7426C120.354 65.6032 124.06 62.1738 124.06 58.96L115.598 26.8421L115.593 26.8449C114.173 20.1667 105.199 15.0181 94.3324 15.0181C88.1984 15.0181 82.6706 16.6606 78.7607 19.2909H45.4936C41.5837 16.6606 36.056 15.0181 29.922 15.0181C19.0552 15.0181 10.0809 20.1667 8.66142 26.8449L8.65584 26.8421L0.185547 58.9919L0.194041 58.9599C0.000866786 62.9175 3.89978 65.3321 8.20663 66.4715Z" fill="#454D58"/>
<path d="M8.2058 65.3556C3.89895 64.2162 0.950615 61.7642 0.193208 58.9604L0.184714 58.9925C-0.841099 62.8861 2.48436 66.716 8.20556 68.2295C15.328 70.1138 23.4641 67.7563 25.9193 63.0968L27.4293 60.2312C24.9668 64.885 15.3239 67.2386 8.2058 65.3556Z" fill="#3C434C"/>
<path d="M124.06 58.9604C123.302 61.764 120.354 64.2162 116.047 65.3554C108.926 67.2394 99.2777 64.883 96.8203 60.2253L98.3332 63.0968C100.788 67.7563 108.924 70.1137 116.047 68.2295C121.768 66.716 125.094 62.8861 124.068 58.9925L124.06 58.9604Z" fill="#3C434C"/>
<path d="M89.8954 47.0825C89.6314 46.5813 88.6873 46.3784 88.0032 46.6772C86.4557 47.353 85.1566 47.7375 82.782 47.7375C79.0619 47.7375 75.6894 46.7945 73.2145 45.2647C72.9852 45.123 72.675 45.0469 72.3557 45.0469H51.8979C51.5785 45.0469 51.2684 45.1228 51.0391 45.2647C48.564 46.7945 45.1914 47.7375 41.4714 47.7375C39.0967 47.7375 37.7979 47.353 36.2506 46.6772C35.5662 46.3784 34.6224 46.5813 34.3581 47.0825L33.3828 48.9332C35.6528 49.9878 38.4471 50.6117 41.4711 50.6117C45.3644 50.6117 48.8773 49.5785 51.3788 47.921H72.874C75.3756 49.5785 78.8884 50.6117 82.7817 50.6117C85.806 50.6117 88.6002 49.9878 90.8705 48.9331L89.8954 47.0825Z" fill="#3C434C"/>
<path d="M36.5039 40.512C36.5039 41.9369 39.4906 44.2647 41.9434 44.2647C44.3961 44.2647 47.3828 41.9259 47.3828 40.512C46.4978 39.1527 44.3961 38.1963 41.9434 38.1963C39.4906 38.1963 37.3887 39.1527 36.5039 40.512Z" fill="#DAD8DB"/>
<path d="M36.362 26.4698H34.0578V25.0012C34.0578 23.598 32.2731 22.4604 30.0715 22.4604C27.8699 22.4604 26.0852 23.598 26.0852 25.0012V26.4698H23.7812C21.5796 26.4698 19.7949 27.6073 19.7949 29.0105C19.7949 30.4138 21.5796 31.5513 23.7812 31.5513H26.0852V33.0198C26.0852 34.4231 27.8699 35.5606 30.0715 35.5606C32.2731 35.5606 34.0578 34.4231 34.0578 33.0198V31.5513H36.362C38.5636 31.5513 40.3483 30.4138 40.3483 29.0105C40.3481 27.6073 38.5634 26.4698 36.362 26.4698Z" fill="#B3E59F"/>
<path d="M36.362 26.4698H34.0578V25.0012C34.0578 23.598 32.2731 22.4604 30.0715 22.4604C27.8699 22.4604 26.0852 23.598 26.0852 25.0012V26.4698H23.7812C21.5796 26.4698 19.7949 27.6073 19.7949 29.0105C19.7949 30.4138 21.5796 31.5513 23.7812 31.5513H26.0852V33.0198C26.0852 34.4231 27.8699 35.5606 30.0715 35.5606C32.2731 35.5606 34.0578 34.4231 34.0578 33.0198V31.5513H36.362C38.5636 31.5513 40.3483 30.4138 40.3483 29.0105C40.3481 27.6073 38.5634 26.4698 36.362 26.4698Z" fill="#DAD8DB"/>
<path d="M95.4673 20.8247C93.4829 20.8247 91.8594 21.8595 91.8594 23.1243C91.8594 24.3891 93.4829 25.424 95.4673 25.424C97.4517 25.424 99.0752 24.3891 99.0752 23.1243C99.0752 21.8595 97.4517 20.8247 95.4673 20.8247Z" fill="#C4DBF9"/>
<path d="M95.4673 20.8247C93.4829 20.8247 91.8594 21.8595 91.8594 23.1243C91.8594 24.3891 93.4829 25.424 95.4673 25.424C97.4517 25.424 99.0752 24.3891 99.0752 23.1243C99.0752 21.8595 97.4517 20.8247 95.4673 20.8247Z" fill="#B3E59F"/>
<path d="M95.4673 32.5967C93.4829 32.5967 91.8594 33.6315 91.8594 34.8963C91.8594 36.1611 93.4829 37.1959 95.4673 37.1959C97.4517 37.1959 99.0752 36.1611 99.0752 34.8963C99.0752 33.6315 97.4517 32.5967 95.4673 32.5967Z" fill="#BED8FB"/>
<path d="M108.31 29.0106C108.31 27.7457 106.686 26.7109 104.702 26.7109C102.717 26.7109 101.094 27.7457 101.094 29.0106C101.094 30.2754 102.717 31.3102 104.702 31.3102C106.686 31.31 108.31 30.2752 108.31 29.0106Z" fill="#EDC963"/>
<path d="M89.8409 29.0106C89.8409 27.7457 88.2173 26.7109 86.2329 26.7109C84.2485 26.7109 82.625 27.7457 82.625 29.0106C82.625 30.2754 84.2485 31.3102 86.2329 31.3102C88.2173 31.31 89.8409 30.2752 89.8409 29.0106Z" fill="#DF667C"/>
<path d="M50.5025 23.177H73.7491C76.1133 23.177 78.6168 20.6972 78.6168 19.291H45.6348C45.8049 20.6972 48.1383 23.177 50.5025 23.177Z" fill="#A6AEC4"/>
<path d="M41.9441 42.8278C39.4913 42.8278 37.3894 41.8714 36.5046 40.5122C36.2163 40.9549 36.0566 41.4401 36.0566 41.9492C36.0566 44.0217 38.6926 45.7019 41.9443 45.7019C45.196 45.7019 47.832 44.0217 47.832 41.9492C47.832 41.4401 47.6721 40.9549 47.384 40.5122C46.4987 41.8715 44.3969 42.8278 41.9441 42.8278Z" fill="#C8C5C9"/>
<path d="M76.8701 40.512C76.8701 41.9369 79.8568 44.2647 82.3098 44.2647C84.7626 44.2647 87.7493 41.9259 87.7493 40.512C86.8642 39.1527 84.7626 38.1963 82.3098 38.1963C79.8568 38.1963 77.7549 39.1527 76.8701 40.512Z" fill="#DAD8DB"/>
<path d="M82.3086 42.8278C79.8558 42.8278 77.7539 41.8714 76.8689 40.5122C76.5806 40.9549 76.4209 41.4401 76.4209 41.9492C76.4209 44.0217 79.0569 45.7019 82.3086 45.7019C85.5603 45.7019 88.1963 44.0217 88.1963 41.9492C88.1963 41.4401 88.0363 40.9549 87.7483 40.5122C86.8632 41.8715 84.7613 42.8278 82.3086 42.8278Z" fill="#C8C5C9"/>
<path d="M73.75 21.7401H50.5033C48.1391 21.7401 46.1625 20.695 45.6356 19.291H45.4932V21.4206C45.4932 23.1843 47.7363 24.614 50.5033 24.614H73.75C76.517 24.614 78.7601 23.1843 78.7601 21.4206V19.291H78.6176C78.0908 20.695 76.1142 21.7401 73.75 21.7401Z" fill="#959DB0"/>
</g>
<defs>
<clipPath id="clip0">
<rect width="124.253" height="79.1962" fill="white"/>
</clipPath>
</defs>
</svg>
