<svg width="22" height="28" viewBox="0 0 22 28" fill="none" xmlns="http://www.w3.org/2000/svg">
<path d="M20.2131 15.6951H11.0984C12.0156 15.0359 12.966 14.429 13.7844 13.8437C13.9873 13.699 14.1849 13.5502 14.3798 13.4002H20.213C21.0415 13.4002 21.7128 12.7736 21.7128 12.0005C21.7128 11.2273 21.0416 10.6008 20.213 10.6008H17.1525C17.5698 10.0044 17.9258 9.36463 18.1877 8.65868C18.8623 6.83851 18.5258 4.74261 17.3977 3.14975C14.5527 -0.867811 8.70755 -0.570804 4.63728 1.42492C2.92462 2.2648 4.44062 4.68117 6.15123 3.84241C8.17156 2.85181 10.4146 2.40462 12.6241 3.08261C14.1355 3.54639 15.3908 4.82699 15.5218 6.33244C15.6696 8.03896 14.5623 9.47015 13.2848 10.6016H1.78787C0.959573 10.6016 0.288086 11.2282 0.288086 12.0013C0.288086 12.7744 0.959502 13.401 1.78787 13.401H9.43128C8.73332 13.8822 8.04767 14.3776 7.40578 14.9273C7.12479 15.1687 6.86116 15.4261 6.61323 15.6959H1.78787C0.959573 15.6959 0.288086 16.3224 0.288086 17.0957C0.288086 17.8686 0.959502 18.4955 1.78787 18.4955H4.86369C3.88906 21.022 4.19602 23.8902 6.38931 26.0019C9.42307 28.9233 14.6271 28.207 18.1493 26.6053C19.8883 25.8145 18.3668 23.4008 16.6353 24.1878C13.9086 25.4282 8.91116 26.0933 7.61661 22.6865C6.99432 21.0485 7.32097 19.6812 8.12562 18.4959H20.213C21.0415 18.4959 21.7127 17.869 21.7127 17.0961C21.7128 16.3228 21.0416 15.6951 20.2131 15.6951Z" fill="black"/>
</svg>
