<svg width="29" height="24" viewBox="0 0 29 24" fill="none" xmlns="http://www.w3.org/2000/svg">
<g clip-path="url(#clip0)">
<path d="M28.6457 22.2938L20.3989 15.4688C21.9963 13.8359 22.9581 11.7609 22.9581 9.5009C22.9581 4.26295 17.8082 0.000976562 11.479 0.000976562C5.14983 0.000976562 0 4.2629 0 9.50085C0 14.7388 5.14989 19.0008 11.4791 19.0008C14.2099 19.0008 16.7171 18.2048 18.6903 16.8828L26.9371 23.7077C27.1727 23.9027 27.482 24.0007 27.7914 24.0007C28.1008 24.0007 28.4101 23.9027 28.6457 23.7077C29.1182 23.3167 29.1181 22.6847 28.6457 22.2938ZM11.4791 17.0008C6.48144 17.0008 2.41666 13.6368 2.41666 9.50085C2.41666 5.36488 6.48144 2.00093 11.4791 2.00093C16.4767 2.00093 20.5415 5.36488 20.5415 9.50085C20.5415 13.6368 16.4767 17.0008 11.4791 17.0008Z" fill="black"/>
</g>
<defs>
<clipPath id="clip0">
<rect width="29" height="24" fill="white"/>
</clipPath>
</defs>
</svg>
