<svg width="99" height="99" viewBox="0 0 99 99" fill="none" xmlns="http://www.w3.org/2000/svg">
<path d="M67.6006 91.7593C66.7845 92.5796 65.8117 93.2253 64.7406 93.6574C63.6695 94.0895 62.5224 94.2991 61.3685 94.2736C60.2146 94.2481 59.0778 93.988 58.0266 93.509C56.9755 93.03 56.0318 92.342 55.2524 91.4865C54.4731 90.631 53.8742 89.6257 53.492 88.5313C53.1098 87.4369 52.9521 86.276 53.0285 85.1187C53.1049 83.9614 53.4137 82.8316 53.9364 81.7975C54.4591 80.7634 55.1849 79.8464 56.0698 79.1018L66.3054 70.2023L65.5292 77.4348L81.5107 67.5288L71.9727 81.6003L77.1455 82.9526L67.6006 91.7593Z" fill="#F10F0F"/>
<path d="M20.7422 41.2307C19.9261 42.051 18.9533 42.6967 17.8822 43.1288C16.8111 43.5609 15.664 43.7705 14.5101 43.7451C13.3562 43.7196 12.2194 43.4594 11.1682 42.9804C10.1171 42.5014 9.17338 41.8134 8.39402 40.9579C7.61467 40.1024 7.01583 39.0971 6.63361 38.0027C6.25139 36.9083 6.09372 35.7474 6.1701 34.5901C6.24649 33.4328 6.55534 32.303 7.07804 31.2689C7.60074 30.2348 8.32645 29.3178 9.21141 28.5732L19.447 19.6739L18.6708 26.9064L33.8351 18.5459L25.1143 31.0719L30.2871 32.4242L20.7422 41.2307Z" fill="#F10F0F"/>
<path d="M33.1429 89.6382C29.8798 92.7328 25.5271 94.3981 21.0422 94.2677C16.5573 94.1373 12.3077 92.2218 9.22821 88.9427C6.1487 85.6636 4.49156 81.2894 4.62135 76.7825C4.75113 72.2756 6.65721 68.005 9.92027 64.9104L28.6166 47.6869L27.1811 54.8993L43.1917 42.5008L42.0874 51.1266L70.7451 30.9097L44.7375 65.1638L55.3293 66.0695L33.1429 89.6382Z" fill="#F10F0F"/>
<path d="M21.5311 88.0929C27.4767 88.0929 32.2965 83.2493 32.2965 77.2745C32.2965 71.2996 27.4767 66.4561 21.5311 66.4561C15.5855 66.4561 10.7656 71.2996 10.7656 77.2745C10.7656 83.2493 15.5855 88.0929 21.5311 88.0929Z" fill="#E82F3E"/>
<path d="M31.8624 80.3248C31.3445 82.097 30.3827 83.706 29.0691 84.998C28.5383 84.9714 28.0235 84.807 27.5747 84.5209C27.1259 84.2348 26.7586 83.8368 26.5085 83.3656C26.2583 82.8944 26.134 82.3661 26.1475 81.8322C26.161 81.2983 26.3119 80.777 26.5856 80.3192C26.8592 79.8614 27.2462 79.4826 27.7089 79.2199C28.1716 78.9571 28.6941 78.8193 29.2255 78.8198C29.757 78.8204 30.2792 78.9593 30.7413 79.2231C31.2035 79.4868 31.5897 79.8664 31.8624 80.3248Z" fill="#E82F3E"/>
<path d="M18.4557 81.9109C20.1545 81.9109 21.5316 80.5271 21.5316 78.82C21.5316 77.1129 20.1545 75.729 18.4557 75.729C16.757 75.729 15.3799 77.1129 15.3799 78.82C15.3799 80.5271 16.757 81.9109 18.4557 81.9109Z" fill="#D32B39"/>
<path d="M31.8624 80.3248C31.3445 82.097 30.3827 83.706 29.0691 84.998C28.5383 84.9714 28.0235 84.807 27.5747 84.5209C27.1259 84.2348 26.7586 83.8368 26.5085 83.3656C26.2583 82.8944 26.134 82.3661 26.1475 81.8322C26.161 81.2983 26.3119 80.777 26.5856 80.3192C26.8592 79.8614 27.2462 79.4826 27.7089 79.2199C28.1716 78.9571 28.6941 78.8193 29.2255 78.8198C29.757 78.8204 30.2792 78.9593 30.7413 79.2231C31.2035 79.4868 31.5897 79.8664 31.8624 80.3248Z" fill="#D32B39"/>
<path d="M19.994 77.2745C19.6899 77.2745 19.3925 77.1839 19.1396 77.0141C18.8867 76.8443 18.6895 76.6029 18.5731 76.3205C18.4567 76.0381 18.4263 75.7273 18.4856 75.4275C18.545 75.1277 18.6914 74.8523 18.9065 74.6362L21.9824 71.5452C22.2708 71.2554 22.662 71.0925 23.0699 71.0925C23.4778 71.0925 23.869 71.2554 24.1574 71.5452C24.4458 71.835 24.6078 72.2282 24.6078 72.6381C24.6078 73.048 24.4458 73.4411 24.1574 73.7309L21.0815 76.8219C20.9389 76.9656 20.7694 77.0796 20.5827 77.1573C20.3961 77.235 20.196 77.2748 19.994 77.2745Z" fill="#FBD59B"/>
<path d="M30.7597 80.3654C30.4555 80.3654 30.1581 80.2748 29.9052 80.105C29.6523 79.9352 29.4552 79.6938 29.3388 79.4114C29.2223 79.129 29.1919 78.8182 29.2512 78.5184C29.3106 78.2186 29.4571 77.9432 29.6722 77.7271L38.8997 68.4541C39.0425 68.3106 39.212 68.1968 39.3986 68.1191C39.5852 68.0414 39.7852 68.0015 39.9872 68.0015C40.1892 68.0015 40.3892 68.0414 40.5757 68.1191C40.7623 68.1968 40.9319 68.3106 41.0747 68.4541C41.2175 68.5977 41.3308 68.768 41.4081 68.9555C41.4854 69.1431 41.5252 69.344 41.5252 69.547C41.5252 69.75 41.4854 69.9509 41.4081 70.1384C41.3308 70.326 41.2175 70.4963 41.0747 70.6399L31.8472 79.9128C31.7045 80.0565 31.535 80.1705 31.3484 80.2482C31.1617 80.3259 30.9617 80.3657 30.7597 80.3654Z" fill="#FBD59B"/>
<path d="M21.5321 69.547C21.2279 69.547 20.9306 69.4564 20.6777 69.2866C20.4247 69.1168 20.2276 68.8754 20.1112 68.593C19.9948 68.3106 19.9643 67.9998 20.0237 67.7C20.083 67.4002 20.2295 67.1248 20.4446 66.9087L29.6721 57.6358C29.9606 57.3459 30.3518 57.1831 30.7597 57.1831C31.1675 57.1831 31.5587 57.3459 31.8472 57.6358C32.1356 57.9256 32.2976 58.3187 32.2976 58.7286C32.2976 59.1385 32.1356 59.5316 31.8472 59.8215L22.6196 69.0944C22.477 69.2381 22.3075 69.3521 22.1208 69.4298C21.9342 69.5075 21.7341 69.5473 21.5321 69.547Z" fill="#FBD59B"/>
<path d="M55.8755 62.3317C55.5737 62.3317 55.2787 62.2424 55.0271 62.0751C54.7754 61.9077 54.5784 61.6697 54.4604 61.3906C54.3424 61.1115 54.3087 60.8037 54.3635 60.5056C54.4183 60.2074 54.5591 59.932 54.7685 59.7137L64.5886 49.4748C64.7275 49.324 64.895 49.2025 65.0813 49.1175C65.2675 49.0325 65.4688 48.9857 65.6732 48.9799C65.8777 48.974 66.0813 49.0092 66.2721 49.0834C66.4628 49.1575 66.637 49.2692 66.7843 49.4119C66.9316 49.5545 67.0491 49.7252 67.1299 49.9141C67.2107 50.1029 67.2533 50.306 67.255 50.5116C67.2567 50.7171 67.2176 50.921 67.14 51.1112C67.0624 51.3013 66.9478 51.4741 66.803 51.6192L56.983 61.858C56.8397 62.008 56.6677 62.1273 56.4774 62.2087C56.2871 62.2901 56.0823 62.332 55.8755 62.3317Z" fill="#E20808"/>
<path d="M48.5614 39.4411C48.2548 39.4412 47.9551 39.349 47.7009 39.1766C47.4468 39.0042 47.2497 38.7594 47.135 38.4736C47.0203 38.1877 46.9933 37.874 47.0574 37.5727C47.1215 37.2713 47.2738 36.9961 47.4947 36.7823L53.1139 31.3447C53.4077 31.0604 53.8018 30.9049 54.2097 30.9126C54.6175 30.9203 55.0056 31.0905 55.2886 31.3858C55.5715 31.681 55.7262 32.0771 55.7185 32.487C55.7109 32.8968 55.5415 33.2868 55.2477 33.5712L49.6284 39.009C49.342 39.2868 48.9594 39.4418 48.5614 39.4411Z" fill="#E82F3E"/>
<path d="M34.3446 66.4559C34.0404 66.4559 33.7431 66.3653 33.4902 66.1955C33.2372 66.0256 33.0401 65.7843 32.9237 65.5019C32.8073 65.2194 32.7768 64.9087 32.8362 64.6089C32.8955 64.3091 33.042 64.0337 33.2571 63.8176L38.8992 58.1477C39.042 58.0042 39.2115 57.8904 39.3981 57.8127C39.5847 57.735 39.7847 57.6951 39.9867 57.6951C40.1886 57.6951 40.3886 57.735 40.5752 57.8127C40.7618 57.8904 40.9314 58.0042 41.0742 58.1477C41.217 58.2913 41.3303 58.4616 41.4076 58.6491C41.4849 58.8367 41.5246 59.0376 41.5246 59.2406C41.5246 59.4436 41.4849 59.6445 41.4076 59.832C41.3303 60.0196 41.217 60.1899 41.0742 60.3335L35.4323 66.0033C35.2896 66.147 35.1201 66.261 34.9334 66.3386C34.7467 66.4163 34.5467 66.4562 34.3446 66.4559Z" fill="#FBD59B"/>
<path d="M14.6989 39.4058C17.0335 39.4058 18.926 37.504 18.926 35.1579C18.926 32.8118 17.0335 30.9099 14.6989 30.9099C12.3642 30.9099 10.4717 32.8118 10.4717 35.1579C10.4717 37.504 12.3642 39.4058 14.6989 39.4058Z" fill="#D32B39"/>
<path d="M61.546 89.4617C63.6209 89.4617 65.303 87.7714 65.303 85.6863C65.303 83.6012 63.6209 81.9109 61.546 81.9109C59.4711 81.9109 57.7891 83.6012 57.7891 85.6863C57.7891 87.7714 59.4711 89.4617 61.546 89.4617Z" fill="#E82F3E"/>
<path d="M78.1277 61.8197C77.8116 61.8198 77.503 61.7221 77.2442 61.5398C76.9853 61.3575 76.7886 61.0994 76.6809 60.8007C76.5732 60.502 76.5597 60.1772 76.6422 59.8705C76.7248 59.5639 76.8994 59.2902 77.1423 59.0869L78.9878 57.5414C79.143 57.4114 79.3221 57.3135 79.5149 57.2531C79.7077 57.1927 79.9105 57.1711 80.1116 57.1894C80.3128 57.2078 80.5084 57.2658 80.6872 57.3601C80.8661 57.4545 81.0247 57.5833 81.154 57.7392C81.2833 57.8951 81.3808 58.0751 81.4408 58.2689C81.5009 58.4627 81.5224 58.6664 81.5042 58.8686C81.4859 59.0707 81.4282 59.2672 81.3343 59.447C81.2404 59.6267 81.1123 59.7861 80.9571 59.916L79.1116 61.4615C78.8356 61.6932 78.4873 61.82 78.1277 61.8197Z" fill="#E20808"/>
<path d="M89.2 71.0924C88.8838 71.0926 88.5753 70.9949 88.3164 70.8125C88.0575 70.6302 87.8608 70.3721 87.7531 70.0734C87.6454 69.7747 87.6319 69.4499 87.7145 69.1433C87.7971 68.8366 87.9717 68.5629 88.2146 68.3596L90.0601 66.8141C90.3734 66.5517 90.7777 66.4251 91.1839 66.4622C91.5901 66.4993 91.9651 66.697 92.2262 67.0119C92.4874 67.3268 92.6133 67.7331 92.5764 68.1413C92.5395 68.5495 92.3427 68.9263 92.0294 69.1887L90.1839 70.7342C89.9079 70.9659 89.5596 71.0927 89.2 71.0924Z" fill="#F10F0F"/>
<path d="M83.0486 77.2745C82.7325 77.2747 82.4239 77.177 82.1651 76.9946C81.9062 76.8123 81.7095 76.5542 81.6018 76.2556C81.4941 75.9569 81.4806 75.6321 81.5631 75.3254C81.6457 75.0187 81.8203 74.7451 82.0632 74.5417L83.9087 72.9962C84.2221 72.7338 84.6263 72.6072 85.0325 72.6443C85.4388 72.6814 85.8137 72.8791 86.0749 73.194C86.336 73.5089 86.462 73.9152 86.4251 74.3234C86.3881 74.7317 86.1914 75.1084 85.878 75.3709L84.0325 76.9163C83.7565 77.1481 83.4082 77.2748 83.0486 77.2745Z" fill="#E20808"/>
<path d="M70.7447 68.0015C70.4286 68.0016 70.1201 67.9039 69.8612 67.7216C69.6024 67.5392 69.4057 67.2811 69.298 66.9824C69.1903 66.6838 69.1769 66.359 69.2594 66.0523C69.342 65.7457 69.5166 65.4721 69.7595 65.2687L72.8353 62.6929C72.9901 62.5603 73.1696 62.4598 73.3633 62.3974C73.557 62.3349 73.7611 62.3117 73.9638 62.3291C74.1664 62.3464 74.3637 62.404 74.5441 62.4985C74.7245 62.593 74.8844 62.7226 75.0146 62.8796C75.1449 63.0367 75.2428 63.2181 75.3027 63.4134C75.3627 63.6088 75.3835 63.8142 75.3639 64.0176C75.3444 64.2211 75.2848 64.4187 75.1887 64.5989C75.0927 64.7791 74.962 64.9383 74.8042 65.0674L71.7284 67.6433C71.4525 67.8751 71.1043 68.0019 70.7447 68.0015Z" fill="#F10F0F"/>
<path d="M92.2763 58.7286C91.9721 58.7286 91.6747 58.6379 91.4218 58.4681C91.1689 58.2983 90.9718 58.0569 90.8554 57.7745C90.7389 57.4921 90.7085 57.1813 90.7678 56.8815C90.8272 56.5817 90.9737 56.3063 91.1888 56.0902L92.7267 54.5447C93.0151 54.2549 93.4063 54.092 93.8142 54.092C94.2221 54.092 94.6133 54.2549 94.9017 54.5447C95.1901 54.8346 95.3521 55.2277 95.3521 55.6376C95.3521 56.0475 95.1901 56.4406 94.9017 56.7304L93.3638 58.2759C93.2211 58.4197 93.0516 58.5336 92.865 58.6113C92.6783 58.689 92.4783 58.7288 92.2763 58.7286Z" fill="#F10F0F"/>
<path d="M78.4345 40.1826C78.1303 40.1826 77.8329 40.092 77.58 39.9222C77.3271 39.7524 77.13 39.511 77.0136 39.2286C76.8972 38.9462 76.8667 38.6354 76.926 38.3356C76.9854 38.0358 77.1319 37.7604 77.347 37.5443L78.8849 35.9988C79.1733 35.709 79.5645 35.5461 79.9724 35.5461C80.3803 35.5461 80.7715 35.709 81.0599 35.9988C81.3483 36.2887 81.5103 36.6818 81.5103 37.0917C81.5103 37.5016 81.3483 37.8947 81.0599 38.1845L79.522 39.73C79.3793 39.8737 79.2098 39.9877 79.0232 40.0654C78.8365 40.1431 78.6365 40.1829 78.4345 40.1826Z" fill="#E20808"/>
<path d="M61.5175 27.8189C61.2133 27.8189 60.9159 27.7283 60.663 27.5584C60.4101 27.3886 60.213 27.1472 60.0966 26.8648C59.9802 26.5824 59.9497 26.2717 60.009 25.9719C60.0684 25.6721 60.2149 25.3967 60.43 25.1805L61.9679 23.635C62.1107 23.4915 62.2802 23.3777 62.4668 23.3C62.6534 23.2223 62.8534 23.1824 63.0554 23.1824C63.2574 23.1824 63.4573 23.2223 63.6439 23.3C63.8305 23.3777 64.0001 23.4915 64.1429 23.635C64.2857 23.7786 64.399 23.9489 64.4763 24.1365C64.5536 24.324 64.5933 24.5249 64.5933 24.7279C64.5933 24.9309 64.5536 25.1318 64.4763 25.3194C64.399 25.5069 64.2857 25.6772 64.1429 25.8208L62.605 27.3662C62.4623 27.51 62.2928 27.624 62.1062 27.7016C61.9195 27.7793 61.7195 27.8192 61.5175 27.8189Z" fill="#E20808"/>
<path d="M86.1239 64.9105C85.8197 64.9105 85.5224 64.8199 85.2695 64.6501C85.0165 64.4802 84.8194 64.2389 84.703 63.9565C84.5866 63.674 84.5561 63.3633 84.6155 63.0635C84.6748 62.7637 84.8213 62.4883 85.0364 62.2722L88.1122 59.1812C88.4007 58.8913 88.7919 58.7285 89.1997 58.7285C89.6076 58.7285 89.9988 58.8913 90.2873 59.1812C90.5757 59.471 90.7377 59.8641 90.7377 60.274C90.7377 60.6839 90.5757 61.0771 90.2873 61.3669L87.2114 64.4579C87.0688 64.6016 86.8992 64.7156 86.7126 64.7933C86.526 64.8709 86.3259 64.9108 86.1239 64.9105Z" fill="#E82F3E"/>
<path d="M70.745 47.9103C70.4408 47.9103 70.1435 47.8196 69.8906 47.6498C69.6376 47.48 69.4405 47.2386 69.3241 46.9562C69.2077 46.6738 69.1772 46.363 69.2366 46.0632C69.2959 45.7634 69.4424 45.4881 69.6575 45.2719L72.7333 42.1809C73.0218 41.8911 73.4129 41.7283 73.8208 41.7283C74.2287 41.7283 74.6199 41.8911 74.9083 42.1809C75.1968 42.4708 75.3588 42.8639 75.3588 43.2738C75.3588 43.6837 75.1968 44.0768 74.9083 44.3666L71.8325 47.4576C71.6899 47.6013 71.5203 47.7153 71.3337 47.793C71.1471 47.8707 70.947 47.9105 70.745 47.9103Z" fill="#F10F0F"/>
<path d="M43.0624 21.637C42.7582 21.637 42.4609 21.5464 42.2079 21.3765C41.955 21.2067 41.7579 20.9654 41.6415 20.6829C41.5251 20.4005 41.4946 20.0898 41.554 19.79C41.6133 19.4902 41.7598 19.2148 41.9749 18.9987L43.5128 17.4532C43.8012 17.1633 44.1924 17.0005 44.6003 17.0005C45.0082 17.0005 45.3994 17.1633 45.6878 17.4532C45.9762 17.743 46.1383 18.1361 46.1383 18.546C46.1383 18.9559 45.9762 19.349 45.6878 19.6389L44.1499 21.1844C44.0072 21.3281 43.8377 21.4421 43.6511 21.5197C43.4645 21.5974 43.2644 21.6373 43.0624 21.637Z" fill="#E82F3E"/>
<path d="M35.3729 29.3644C35.0688 29.3644 34.7714 29.2737 34.5185 29.1039C34.2656 28.9341 34.0684 28.6927 33.952 28.4103C33.8356 28.1279 33.8052 27.8172 33.8645 27.5174C33.9239 27.2175 34.0703 26.9422 34.2854 26.726L37.3613 23.635C37.6497 23.3452 38.0409 23.1824 38.4488 23.1824C38.8567 23.1824 39.2478 23.3452 39.5363 23.635C39.8247 23.9249 39.9867 24.318 39.9867 24.7279C39.9867 25.1378 39.8247 25.5309 39.5363 25.8208L36.4604 28.9117C36.3178 29.0555 36.1483 29.1694 35.9616 29.2471C35.775 29.3248 35.5749 29.3646 35.3729 29.3644Z" fill="#E20808"/>
<path d="M45.6265 9.27299C45.3122 9.27314 45.0054 9.17651 44.7474 8.99612C44.4894 8.81573 44.2927 8.56024 44.1835 8.26404C44.0744 7.96785 44.0582 7.64517 44.1372 7.33945C44.2161 7.03373 44.3863 6.75964 44.6249 6.5541L48.2135 3.46312C48.3666 3.32913 48.5445 3.22692 48.7371 3.16239C48.9297 3.09785 49.133 3.07226 49.3355 3.0871C49.5379 3.10194 49.7355 3.15691 49.9167 3.24884C50.0979 3.34077 50.2592 3.46785 50.3913 3.62274C50.5234 3.77763 50.6237 3.95726 50.6864 4.15129C50.7491 4.34532 50.7729 4.5499 50.7565 4.75323C50.7401 4.95656 50.6839 5.15462 50.5909 5.33598C50.498 5.51735 50.3703 5.67843 50.2151 5.80994L46.6265 8.90092C46.3483 9.14132 45.9934 9.27336 45.6265 9.27299Z" fill="#E20808"/>
<path d="M38.4488 15.4548C38.1345 15.455 37.8277 15.3583 37.5697 15.1779C37.3117 14.9975 37.1149 14.7421 37.0058 14.4459C36.8967 14.1497 36.8805 13.827 36.9594 13.5213C37.0383 13.2155 37.2086 12.9415 37.4472 12.7359L40.523 10.0864C40.8328 9.81953 41.2353 9.68726 41.642 9.71865C42.0488 9.75005 42.4265 9.94253 42.692 10.2538C42.9575 10.565 43.0891 10.9695 43.0579 11.3782C43.0267 11.787 42.8351 12.1665 42.5254 12.4334L39.4496 15.0827C39.1711 15.3233 38.816 15.4554 38.4488 15.4548Z" fill="#F10F0F"/>
<path d="M30.0999 10.8181C29.787 10.8182 29.4814 10.7223 29.2241 10.5433C28.9668 10.3643 28.77 10.1107 28.6599 9.81633C28.5497 9.52195 28.5316 9.20083 28.6079 8.89583C28.6842 8.59083 28.8513 8.31648 29.0868 8.10941L34.3596 3.47295C34.6665 3.20303 35.0677 3.06673 35.4746 3.09401C35.8816 3.12129 36.2612 3.30992 36.5298 3.61841C36.7984 3.92691 36.934 4.32999 36.9068 4.73898C36.8797 5.14797 36.692 5.52938 36.385 5.79929L31.1121 10.4357C30.8321 10.6825 30.4723 10.8184 30.0999 10.8181Z" fill="#E20808"/>
<path d="M23.0698 17.0004C22.7569 17.0006 22.4513 16.9047 22.194 16.7258C21.9366 16.5468 21.7397 16.2932 21.6296 15.9988C21.5195 15.7044 21.5014 15.3833 21.5776 15.0782C21.6539 14.7732 21.821 14.4989 22.0565 14.2918L25.572 11.2008C25.8793 10.9328 26.2797 10.7981 26.6855 10.8262C27.0914 10.8542 27.4697 11.0427 27.7376 11.3504C28.0054 11.6581 28.1411 12.0599 28.1148 12.4679C28.0885 12.8759 27.9024 13.2567 27.5973 13.5271L24.082 16.6181C23.8021 16.865 23.4422 17.0009 23.0698 17.0004Z" fill="#E82F3E"/>
<path d="M83.9035 20.0914C83.5924 20.0915 83.2886 19.9967 83.0322 19.8197C82.7758 19.6427 82.5789 19.3917 82.4674 19.0998C82.3559 18.808 82.3351 18.489 82.4077 18.185C82.4804 17.8811 82.643 17.6064 82.8743 17.3972L89.7094 11.2153C89.8587 11.0751 90.0344 10.9662 90.2261 10.8949C90.4178 10.8237 90.6217 10.7916 90.8259 10.8005C91.0301 10.8094 91.2305 10.8591 91.4154 10.9467C91.6002 11.0344 91.7659 11.1581 91.9026 11.3108C92.0393 11.4635 92.1443 11.6421 92.2116 11.836C92.2789 12.03 92.307 12.2355 92.2943 12.4405C92.2816 12.6455 92.2284 12.8459 92.1377 13.03C92.0471 13.2141 91.9208 13.3782 91.7663 13.5127L84.931 19.6946C84.6493 19.9502 84.2831 20.0917 83.9035 20.0914Z" fill="#F10F0F"/>
<path d="M75.3588 27.8188C75.0477 27.8189 74.7439 27.7242 74.4874 27.5472C74.231 27.3702 74.034 27.1192 73.9225 26.8273C73.811 26.5355 73.7902 26.2165 73.8628 25.9125C73.9354 25.6085 74.0981 25.3338 74.3293 25.1246L77.747 22.0337C77.8963 21.8934 78.072 21.7845 78.2637 21.7133C78.4554 21.6421 78.6593 21.61 78.8635 21.6189C79.0677 21.6278 79.2681 21.6775 79.453 21.7651C79.6379 21.8527 79.8035 21.9765 79.9402 22.1292C80.0769 22.2819 80.182 22.4604 80.2492 22.6544C80.3165 22.8483 80.3446 23.0538 80.3319 23.2588C80.3192 23.4638 80.266 23.6642 80.1753 23.8483C80.0847 24.0324 79.9584 24.1965 79.8039 24.331L76.3865 27.422C76.1047 27.6776 75.7384 27.819 75.3588 27.8188Z" fill="#E82F3E"/>
</svg>
