<svg width="39" height="39" viewBox="0 0 39 39" fill="none" xmlns="http://www.w3.org/2000/svg">
<g clip-path="url(#clip0)">
<path d="M21.3871 27.0484H30.8226V38.371H19.5V23.2742L21.3871 27.0484Z" fill="#D3A06C"/>
<path d="M19.5 38.371H8.17743V27.0484H17.6129L19.5 23.2742V38.371Z" fill="#D3A06C"/>
<path d="M30.8226 23.2742L32.7097 27.0484H21.3871L19.5 23.2742H30.8226Z" fill="#DFB28B"/>
<path d="M19.5 23.2742L17.6129 27.0484H6.29034L8.17744 23.2742H19.5Z" fill="#DFB28B"/>
<path d="M29.5645 11.9516L30.8226 14.4678C29.5707 15.3044 28.4576 16.3235 27.5202 17.4996L26.4194 18.871L26.6583 16.9587C26.7843 15.9648 27.1114 15.0086 27.6019 14.1594C28.0927 13.3104 28.7595 12.5555 29.5645 11.9516Z" fill="#FCD770"/>
<path d="M12.3417 16.9587L12.5807 18.871L11.4798 17.4996C10.5424 16.3235 9.42935 15.3044 8.17743 14.4678L9.43549 11.9516C10.2405 12.5555 10.9073 13.3104 11.3981 14.1594C11.8887 15.0086 12.2158 15.9648 12.3417 16.9587Z" fill="#FCD770"/>
<path d="M35.8548 10.2469L35.2258 11.3226L35.1315 12.5806L33.9677 12.2848L32.804 12.5806L32.7097 11.3226L32.0806 10.2469L33.1876 9.76871L33.9677 8.80643L34.7479 9.76871L35.8548 10.2469Z" fill="#FF826E"/>
<path d="M23.2742 4.7681L22.0162 6.91934L21.8337 9.43547L19.5 8.84422L17.1663 9.43547L16.9839 6.91934L15.7258 4.7681L17.9462 3.81196L19.5 1.88708L21.0539 3.81196L23.2742 4.7681Z" fill="#FF826E"/>
<path d="M6.91933 10.2469L6.2903 11.3226L6.19601 12.5806L5.03224 12.2848L3.86847 12.5806L3.77417 11.3226L3.14514 10.2469L4.25209 9.76871L5.03224 8.80643L5.81239 9.76871L6.91933 10.2469Z" fill="#FF826E"/>
<path d="M31.2114 22.6452H7.78853L5.2724 27.6774H7.54834V39H31.4516V27.6774H33.7275L31.2114 22.6452ZM30.4337 23.9032L31.6918 26.4194H21.7759L20.5178 23.9032H30.4337ZM8.56622 23.9032H18.4821L17.224 26.4194H7.30815L8.56622 23.9032ZM30.1935 37.7419H20.129V33.3387H18.8709V37.7419H8.80641V27.6774H18.0017L18.8709 25.9387V31.4516H20.129V25.9387L20.9982 27.6774H30.1935V37.7419Z" fill="black"/>
<path d="M10.0645 32.7097H13.8387V33.9678H10.0645V32.7097Z" fill="black"/>
<path d="M10.0645 35.2258H13.8387V36.4839H10.0645V35.2258Z" fill="black"/>
<path d="M15.0967 35.2258H16.3548V36.4839H15.0967V35.2258Z" fill="black"/>
<path d="M16.595 10.2307L19.5 9.49014L22.405 10.2301L22.6326 7.1107L24.1757 4.47478L21.4464 3.2935L19.5 0.887024L17.553 3.2935L14.8237 4.47478L16.3668 7.1107L16.595 10.2307ZM18.3368 4.32459L19.5 2.88715L20.6632 4.3252L22.3727 5.06573L21.3997 6.72799L21.2599 8.64089L19.5 8.19246L17.7401 8.64028L17.6003 6.72738L16.6273 5.06481L18.3368 4.32459Z" fill="black"/>
<path d="M6.90678 11.5146L7.82085 9.95395L6.20158 9.25243L5.03228 7.8064L3.86298 9.25182L2.24371 9.95334L3.15778 11.5139L3.29292 13.3752L5.03228 12.9329L6.77225 13.3759L6.90678 11.5146ZM5.6739 11.1306L5.62599 11.7855L5.03228 11.6346L4.43918 11.7855L4.39065 11.1306L4.04665 10.5424L4.6462 10.2829L5.03228 9.80652L5.41775 10.2835L6.01729 10.5434L5.6739 11.1306Z" fill="black"/>
<path d="M35.8422 11.5146L36.7563 9.95395L35.137 9.25243L33.9677 7.8064L32.7984 9.25182L31.1791 9.95334L32.0932 11.5139L32.2283 13.3752L33.9677 12.9329L35.7077 13.3759L35.8422 11.5146ZM34.6093 11.1306L34.5614 11.7855L33.9677 11.6346L33.3746 11.7855L33.3267 11.1306L32.9827 10.5424L33.5822 10.2829L33.9677 9.80652L34.3532 10.2835L34.9527 10.5434L34.6093 11.1306Z" fill="black"/>
<path d="M7.82822 14.9911C9.02608 15.79 10.0903 16.7649 10.9894 17.8896L13.4809 21.0029L12.9655 16.8813C12.6965 14.7294 11.5471 12.7487 9.81237 11.4479L9.20976 10.9961L7.36597 14.6827L7.82822 14.9911ZM9.64129 12.9468C10.7049 13.9533 11.4264 15.293 11.6737 16.7425C10.8791 15.8094 9.97762 14.9779 8.984 14.2613L9.64129 12.9468Z" fill="black"/>
<path d="M26.0345 16.8813L25.5191 21.0029L28.0107 17.889C28.9103 16.7643 29.9739 15.7894 31.1718 14.9905L31.6334 14.6821L29.7896 10.9955L29.187 11.4485C27.4529 12.7493 26.3029 14.7294 26.0345 16.8813ZM30.016 14.2614C29.0224 14.9779 28.1203 15.8087 27.3263 16.7425C27.5742 15.2931 28.2951 13.9533 29.3587 12.9468L30.016 14.2614Z" fill="black"/>
<path d="M22.0161 21.3871H23.2742V18.7515C23.2742 15.7301 24.339 12.7889 26.2741 10.4672L25.3072 9.66187C23.1848 12.209 22.0161 15.4371 22.0161 18.7515V21.3871Z" fill="black"/>
<path d="M26.4194 7.54837H27.6774V8.80644H26.4194V7.54837Z" fill="black"/>
<path d="M28.3065 5.03226H29.5645V6.29032H28.3065V5.03226Z" fill="black"/>
<path d="M15.7258 21.3871H16.9839V18.7515C16.9839 15.4365 15.8152 12.209 13.6935 9.66187L12.7266 10.4672C14.661 12.7889 15.7258 15.7301 15.7258 18.7515V21.3871Z" fill="black"/>
<path d="M11.3226 7.54837H12.5806V8.80644H11.3226V7.54837Z" fill="black"/>
<path d="M9.43549 5.03226H10.6936V6.29032H9.43549V5.03226Z" fill="black"/>
<path d="M18.871 10.6935H20.129V11.9516H18.871V10.6935Z" fill="black"/>
<path d="M18.871 13.2097H20.129V21.3871H18.871V13.2097Z" fill="black"/>
<path d="M36.4839 16.9839H37.742V18.2419H36.4839V16.9839Z" fill="black"/>
<path d="M36.4839 19.5H37.742V20.7581H36.4839V19.5Z" fill="black"/>
<path d="M37.7419 18.2419H39V19.5H37.7419V18.2419Z" fill="black"/>
<path d="M35.2258 18.2419H36.4838V19.5H35.2258V18.2419Z" fill="black"/>
<path d="M34.5968 0H35.8549V1.25806H34.5968V0Z" fill="black"/>
<path d="M34.5968 2.51611H35.8549V3.77418H34.5968V2.51611Z" fill="black"/>
<path d="M35.8549 1.25806H37.1129V2.51612H35.8549V1.25806Z" fill="black"/>
<path d="M33.3387 1.25806H34.5967V2.51612H33.3387V1.25806Z" fill="black"/>
<path d="M1.25806 19.5H2.51612V20.7581H1.25806V19.5Z" fill="black"/>
<path d="M1.25806 22.0161H2.51612V23.2742H1.25806V22.0161Z" fill="black"/>
<path d="M2.51617 20.7581H3.77424V22.0161H2.51617V20.7581Z" fill="black"/>
<path d="M0 20.7581H1.25806V22.0161H0V20.7581Z" fill="black"/>
<path d="M1.25806 0H2.51612V1.25806H1.25806V0Z" fill="black"/>
<path d="M1.25806 2.51611H2.51612V3.77418H1.25806V2.51611Z" fill="black"/>
<path d="M2.51617 1.25806H3.77424V2.51612H2.51617V1.25806Z" fill="black"/>
<path d="M0 1.25806H1.25806V2.51612H0V1.25806Z" fill="black"/>
</g>
<defs>
<clipPath id="clip0">
<rect width="39" height="39" fill="white"/>
</clipPath>
</defs>
</svg>
