<svg width="100" height="109" viewBox="0 0 100 109" fill="none" xmlns="http://www.w3.org/2000/svg">
<g clip-path="url(#clip0)">
<path d="M95.6879 1.69731C94.522 0.531267 92.7059 0.643858 91.5911 1.86884L90.7085 2.83865L88.7296 0.664349C87.9942 -0.143435 86.7975 -0.239338 86.0165 0.51479C85.1606 1.34095 85.1291 2.77485 85.9217 3.6458L87.9477 5.87206L84.6433 9.50308L83.4693 8.21303C82.3258 6.95636 80.4719 6.95636 79.3284 8.21303L58.4389 31.1673C57.6105 32.0775 57.3856 33.3963 57.7572 34.5321L55.6754 36.8196C55.3549 36.6902 55.0145 36.6188 54.6665 36.6188C53.8901 36.6188 53.1451 36.9578 52.5961 37.5611L49.3184 41.1628L46.2299 37.769C44.5374 35.909 41.862 35.7594 40.0067 37.4208L28.0601 48.1159C27.0424 49.027 26.4205 50.3758 26.3538 51.8165C26.2871 53.2569 26.7811 54.6682 27.7093 55.6881L31.9045 60.298L28.6268 63.8996C28.0778 64.5029 27.7692 65.3215 27.7692 66.1747C27.7692 66.5642 27.8365 66.9451 27.9584 67.3027L25.9322 69.5026C24.8983 69.0942 23.6982 69.3414 22.87 70.2516L3.85667 91.1442C2.69304 92.4228 2.71649 94.5037 3.90876 95.7503L14.9264 107.269C16.216 108.617 18.2926 108.4 19.3272 106.808L34.983 82.7275C35.7803 81.4497 35.6355 79.7287 34.6384 78.6332L33.0433 76.8806L34.6697 75.0899L37.2444 77.919L42.1438 93.9579C42.5527 95.2963 43.6896 96.152 44.9184 96.152C45.1729 96.152 45.4315 96.1153 45.6885 96.0386L58.2597 92.2798C59.2118 91.995 60.007 91.2342 60.3265 90.2084C60.7807 88.7495 60.2419 87.1883 59.0894 86.4119L57.8758 85.5942L54.0977 70.337L57.5161 67.1491C62.6891 71.18 68.9108 73.385 75.3089 73.385C76.397 73.385 77.4906 73.3212 78.5847 73.1919C79.6645 73.0643 80.5859 72.2749 80.98 71.1631L84.3163 61.7515C84.6873 60.7048 84.5347 59.5215 83.9137 58.6292C83.2928 57.7369 82.2937 57.2648 81.2768 57.3845C76.3193 57.9661 71.3824 56.8831 67.0762 54.4006C67.0964 54.1864 67.1123 53.9715 67.1204 53.7552C67.229 50.8342 66.2123 47.9731 64.331 45.9059L62.7816 44.2034L64.4714 42.3465L67.3699 45.5316C67.9207 46.1368 68.6662 46.474 69.4402 46.474C69.5009 46.474 69.5619 46.4719 69.6228 46.4676C70.4614 46.4102 71.2369 45.9596 71.7523 45.2306L90.0216 19.3969C90.9274 18.116 90.8238 16.2947 89.78 15.1476L88.784 14.0532L95.7902 6.35454C96.9669 5.06174 96.9326 2.94216 95.6879 1.69731ZM44.2356 65.3272L42.7357 66.9751C42.3545 67.3938 41.8551 67.6033 41.3554 67.6033C40.8558 67.6033 40.3562 67.394 39.9751 66.9751C39.2129 66.1375 39.2129 64.7792 39.9753 63.9417L41.4752 62.2938C42.2376 61.4562 43.4737 61.4562 44.2358 62.2938C44.998 63.1313 44.998 64.4896 44.2356 65.3272ZM36.0454 55.7479L32.7955 52.1768L42.8601 43.1666L45.1775 45.7131L36.0454 55.7479Z" fill="#EE0C0C"/>
</g>
<defs>
<clipPath id="clip0">
<rect width="98.427" height="108.155" fill="white" transform="translate(0.610352)"/>
</clipPath>
</defs>
</svg>
