<svg width="41" height="41" viewBox="0 0 41 41" fill="none" xmlns="http://www.w3.org/2000/svg">
<path d="M12.3 32.8C10.045 32.8 8.2 34.645 8.2 36.9C8.2 39.155 10.045 41 12.3 41C14.555 41 16.4 39.155 16.4 36.9C16.4 34.645 14.555 32.8 12.3 32.8ZM0 0V4.1H4.1L11.48 19.68L8.61 24.6C8.405 25.215 8.2 26.035 8.2 26.65C8.2 28.905 10.045 30.75 12.3 30.75H36.9V26.65H13.12C12.915 26.65 12.71 26.445 12.71 26.24V26.0349L14.555 22.5499H29.725C31.365 22.5499 32.595 21.7299 33.21 20.4999L40.59 7.175C41 6.765 41 6.56 41 6.15C41 4.92 40.18 4.1 38.95 4.1H8.61L6.765 0H0ZM32.8 32.8C30.545 32.8 28.7 34.645 28.7 36.9C28.7 39.155 30.545 41 32.8 41C35.055 41 36.9 39.155 36.9 36.9C36.9 34.645 35.055 32.8 32.8 32.8Z" fill="black"/>
</svg>
