<svg width="99" height="99" viewBox="0 0 99 99" fill="none" xmlns="http://www.w3.org/2000/svg">
<path d="M31.192 3.61903C25.0869 6.10644 19.6086 9.76374 14.9111 14.483C10.2122 19.2036 6.5768 24.71 4.10018 30.8438C1.70924 36.7698 0.496094 43.0321 0.496094 49.4556C0.496094 55.8777 1.70924 62.1399 4.10018 68.0632C6.5768 74.1984 10.2135 79.7048 14.9111 84.4241C19.6086 89.146 25.0855 92.8006 31.192 95.288C37.0892 97.6934 43.3195 98.9084 49.7116 98.9084C56.1038 98.9084 62.3327 97.6893 68.2298 95.288C74.3337 92.8006 79.8146 89.146 84.5108 84.4241C89.2097 79.7048 92.8464 74.2011 95.3217 68.0632C97.7126 62.1399 98.9231 55.8777 98.9231 49.4556C98.9231 43.0321 97.7113 36.7698 95.3217 30.8438C92.8464 24.71 89.207 19.2022 84.5108 14.483C79.8146 9.76374 74.3391 6.10644 68.2298 3.61903C62.3327 1.21773 56.1038 0 49.7116 0C43.3195 0 37.0892 1.21773 31.192 3.61903ZM12.7962 70.2746C10.4257 68.7794 8.24148 67.0574 6.30752 65.0292C3.35352 56.6759 2.85303 47.6324 4.81012 39.0481C5.73086 37.2236 6.77809 35.4714 7.96268 33.7931C8.32853 33.2752 8.66717 32.7353 9.05886 32.2324L20.1649 38.8363C20.1649 38.9237 20.1649 39.0194 20.1649 39.1164C20.1363 45.119 20.7429 51.0778 21.9506 56.9506C21.9547 56.9779 21.9588 56.9929 21.9642 57.0175L13.3511 70.5889C13.1634 70.4932 12.9771 70.3894 12.7962 70.2746ZM45.8178 93.2174C47.7341 94.2001 49.7048 95.0297 51.7299 95.7048C43.1277 96.0807 34.4398 94.0552 26.7597 89.6271L45.3772 92.9605C45.52 93.0521 45.6655 93.1395 45.8178 93.2174ZM45.7498 89.8403L23.7799 85.9056C21.2094 82.769 18.8973 79.4506 16.9103 75.904C16.4044 75.002 15.84 74.1259 15.4116 73.1843L24.0165 59.6266C24.2069 59.6744 24.4191 59.725 24.6598 59.7892C30.0428 61.2366 35.521 62.2657 41.0373 63.072C41.3597 63.1171 41.6289 63.1568 41.8588 63.1814L52.1733 81.103C50.3835 83.6314 48.5733 86.1461 46.7236 88.6335C46.4163 89.0476 46.0899 89.4453 45.7498 89.8403ZM82.3021 82.2059C80.5531 83.9648 78.6967 85.5502 76.7532 86.9634C76.4308 84.3749 75.8746 81.8383 75.0898 79.3604L86.0952 58.7287C89.1267 57.3414 92.0508 55.7684 94.7654 53.8181C95.1204 53.5652 95.4155 53.2823 95.644 52.9735C94.847 63.6351 90.3997 74.0699 82.3021 82.2059ZM81.8139 55.4486C82.2232 56.233 82.6272 57.0257 83.0324 57.8294L72.4024 77.7559C72.3412 77.7696 72.2827 77.7832 72.2215 77.7914C66.4754 78.8698 60.683 79.4438 54.8417 79.4711L44.2334 61.0384C45.8845 57.9578 47.5206 54.865 49.1431 51.7708C50.2448 49.6715 51.3273 47.5586 52.4086 45.447L74.3636 43.181C77.0524 47.1445 79.5997 51.1926 81.8139 55.4486ZM77.3597 31.8128C76.318 34.5776 75.2027 37.3138 74.0943 40.0554L52.7064 42.2626C52.4507 41.9237 52.1855 41.5902 51.9067 41.2717C49.3811 38.3976 46.8392 35.5411 44.3014 32.6765C44.3245 32.6478 44.3476 32.626 44.3708 32.6C43.3467 31.5722 42.3198 30.5445 41.2957 29.514L47.25 11.4994C47.6607 11.3901 48.0741 11.2985 48.4917 11.2534C51.7286 10.9227 54.9695 10.5482 58.2146 10.3596C60.2016 10.2475 62.1994 10.1833 64.2205 10.3268L78.9523 27.0129C78.445 28.6229 77.95 30.237 77.3597 31.8128ZM82.3021 16.7025C86.3659 20.7889 89.513 25.4521 91.738 30.4338C88.9853 28.53 86.0422 26.9637 82.9481 25.6872C82.4667 25.4877 81.973 25.3114 81.4711 25.1378L66.9704 8.71411C67.0711 8.00479 67.1241 7.2941 67.1459 6.57795C72.6622 8.83438 77.833 12.2129 82.3021 16.7025ZM34.9512 5.71556C35.0083 5.75793 35.0355 5.79346 35.0681 5.80303C38.3825 6.95379 41.3977 8.64851 44.2402 10.6589L38.6777 27.4926C38.6491 27.5008 38.6219 27.509 38.5947 27.5213C37.4564 27.9942 36.2963 28.4179 35.1756 28.9304C30.5583 31.0392 26.0566 33.3749 21.816 36.1753L10.8391 29.6493C10.8555 29.3049 10.9139 28.955 11.0309 28.6434C11.7681 26.6699 12.4929 24.6854 13.3266 22.7515C13.9686 21.2618 14.7003 19.8227 15.4986 18.4163C16.0209 17.8369 16.5622 17.2628 17.1198 16.7025C22.3328 11.4653 28.4937 7.74648 35.0532 5.54745C35.0192 5.60075 34.9838 5.65679 34.9512 5.71556Z" fill="#DB1414"/>
</svg>
