<svg width="53" height="51" viewBox="0 0 53 51" fill="none" xmlns="http://www.w3.org/2000/svg">
<path d="M37.9826 12.75C35.0596 12.75 32.6826 15.0373 32.6826 17.85C32.6826 20.6627 35.0596 22.95 37.9826 22.95C40.9056 22.95 43.2826 20.6627 43.2826 17.85C43.2826 15.0373 40.9055 12.75 37.9826 12.75Z" fill="black" fill-opacity="0.35"/>
<path d="M16.4003 37.2833C17.9355 37.8104 19.6227 37.1677 20.128 35.8358C20.6262 34.5166 19.7764 32.9841 18.2332 32.4205L15.039 31.1191L15.0408 31.1182L11.8246 29.8066L11.8255 29.8058L4.41699 26.7832V32.6626L12.8775 35.925L16.4003 37.2833Z" fill="black" fill-opacity="0.35"/>
<path d="M19.4332 28.0498C19.1584 28.0498 18.8979 28.0787 18.6347 28.1008C18.5331 28.1119 18.4386 28.1186 18.329 28.134L17.9059 28.191C16.8592 28.3695 15.9016 28.7231 15.0562 29.2781L17.185 30.1477C17.8758 29.8859 18.6133 29.7498 19.4331 29.7498C22.8418 29.7498 25.6164 32.4189 25.6164 35.6998C25.6164 38.9807 22.8418 41.6498 19.4331 41.6498C17.0445 41.6498 14.9236 40.2838 13.9025 38.152L12.779 37.7185L11.7305 37.3148C12.6094 40.7471 15.807 43.3498 19.4332 43.3498C23.4224 43.3498 26.7251 40.504 27.2887 36.8133L27.2984 36.7479C27.3231 36.5788 27.3391 36.4266 27.3523 36.277C27.3673 36.0858 27.3833 35.8945 27.3833 35.6999C27.3832 31.4821 23.8172 28.0498 19.4332 28.0498Z" fill="black" fill-opacity="0.35"/>
<path d="M36.3955 29.6404C36.1773 29.6132 35.9618 29.5826 35.7472 29.5451C35.5679 29.5129 35.3903 29.4771 35.2127 29.438C35.0025 29.3913 34.7949 29.3394 34.5892 29.2834C34.4151 29.2349 34.2437 29.1856 34.0733 29.1304C33.8711 29.0649 33.6723 28.9944 33.4744 28.9196C33.3084 28.8567 33.1431 28.793 32.9815 28.7232C32.7872 28.6408 32.5972 28.5498 32.4082 28.4581C32.2519 28.3816 32.0946 28.3059 31.9417 28.2235C31.7562 28.1224 31.576 28.0135 31.3958 27.9031C31.2501 27.8146 31.1034 27.7288 30.9621 27.6344C30.7828 27.5146 30.6114 27.3862 30.4391 27.2579C30.3075 27.1602 30.1733 27.0657 30.0461 26.9637C29.8703 26.8209 29.7043 26.6688 29.5373 26.5184C29.4251 26.4164 29.3076 26.3204 29.1998 26.215C29.0143 26.0348 28.8411 25.8435 28.6681 25.6523C28.5895 25.5656 28.5038 25.484 28.4278 25.3947C28.1858 25.1108 27.9561 24.8167 27.7415 24.5116C27.6885 24.4368 27.6443 24.356 27.5931 24.2804C27.435 24.0449 27.2795 23.8077 27.139 23.5613C27.0693 23.4398 27.011 23.3123 26.9456 23.1882C26.8369 22.9799 26.7265 22.7725 26.6293 22.5566C26.5658 22.4155 26.5128 22.2685 26.4553 22.1239C26.3723 21.9182 26.2883 21.7125 26.2177 21.5018C26.1657 21.3471 26.1241 21.189 26.0782 21.0317C26.0182 20.8234 25.959 20.6152 25.9104 20.4027C25.8724 20.2378 25.8442 20.0703 25.8132 19.9028C25.7752 19.6912 25.739 19.4795 25.7117 19.2636C25.6904 19.0911 25.6772 18.9168 25.6631 18.7418C25.6534 18.6134 25.6331 18.4885 25.6278 18.3584L19.9365 26.362C20.0248 26.3663 20.1105 26.3807 20.198 26.3866C20.342 26.3977 20.4851 26.4112 20.6273 26.4283C20.8005 26.4487 20.97 26.4742 21.1396 26.5031C21.2801 26.5277 21.4188 26.5524 21.5565 26.5821C21.7243 26.6178 21.8896 26.6603 22.0538 26.7054C22.1881 26.741 22.3215 26.7768 22.4531 26.8184C22.6165 26.8694 22.7764 26.9289 22.9363 26.9885C23.0626 27.0352 23.189 27.0803 23.3126 27.1321C23.4733 27.2001 23.6288 27.2766 23.7851 27.3514C23.8999 27.4075 24.0174 27.4602 24.1306 27.5206C24.2913 27.6064 24.4459 27.7017 24.6005 27.796C24.7012 27.8571 24.8055 27.9141 24.9035 27.9788C25.0775 28.0935 25.2445 28.2184 25.4105 28.3434C25.4812 28.397 25.5563 28.4463 25.6261 28.5015C25.8575 28.686 26.081 28.8806 26.2938 29.0854C26.3353 29.1254 26.3716 29.1696 26.4131 29.2103C26.5818 29.3778 26.747 29.5486 26.9024 29.728C26.9713 29.8079 27.0322 29.8929 27.0985 29.9753C27.2177 30.1224 27.337 30.2695 27.4474 30.4233C27.5164 30.5202 27.5782 30.6222 27.6435 30.7216C27.7397 30.8678 27.836 31.014 27.9244 31.1662C27.9871 31.2749 28.0427 31.3872 28.1011 31.4985C28.1806 31.6481 28.2584 31.7985 28.3291 31.9524C28.383 32.0714 28.4306 32.192 28.4801 32.3128C28.5419 32.4666 28.6029 32.6205 28.6576 32.7777C28.7009 32.9044 28.7389 33.0327 28.7759 33.1619C28.8227 33.3192 28.866 33.4781 28.904 33.6388C28.9349 33.7722 28.9623 33.9074 28.9879 34.0425C29.018 34.204 29.0436 34.3655 29.0647 34.5296C29.0833 34.6698 29.0983 34.8101 29.1107 34.9529C29.1169 35.0268 29.1302 35.0999 29.1345 35.1747L37.1878 29.7254C37.1048 29.7203 37.0253 29.7059 36.9431 29.699C36.7595 29.6846 36.5775 29.6634 36.3955 29.6404Z" fill="black" fill-opacity="0.35"/>
<path d="M43.2833 0H9.7167C4.35832 0 0 4.19475 0 9.35003V41.6501C0 46.8053 4.35832 51 9.7167 51H43.2834C48.6408 51 53 46.8052 53 41.65V9.35003C53 4.19475 48.6408 0 43.2833 0ZM40.644 29.4653L28.9884 37.3524C28.174 41.7214 24.2043 45.05 19.4334 45.05C14.6016 45.05 10.4049 41.2948 9.80945 36.5739L2.65 33.8139V24.2165L13.2058 28.5234C14.491 27.4388 15.9971 26.7555 17.7073 26.4877L26.0592 14.7416C27.485 9.68492 32.2832 5.95007 37.9833 5.95007C44.8026 5.95007 50.35 11.288 50.35 17.8501C50.35 23.5322 46.1868 28.2897 40.644 29.4653Z" fill="black" fill-opacity="0.35"/>
<path d="M37.9829 7.6499C33.2367 7.6499 29.2105 10.6666 27.8634 14.8111L27.73 15.3118C27.6187 15.7274 27.5365 16.1414 27.4783 16.5511C27.4756 16.5723 27.4712 16.5936 27.4685 16.6148C27.412 17.0322 27.3828 17.4445 27.3828 17.8499C27.3828 23.4743 32.1378 28.0499 37.9828 28.0499C38.3423 28.0499 38.6966 28.0321 39.0473 27.998C39.3643 27.9674 39.6788 27.9181 39.9925 27.8603C40.0269 27.8544 40.0632 27.8519 40.0985 27.845L40.1329 27.8382C44.9507 26.8794 48.5829 22.7654 48.5829 17.8499C48.5829 12.2255 43.8279 7.6499 37.9829 7.6499ZM37.9829 24.6499C34.0865 24.6499 30.9162 21.5993 30.9162 17.8499C30.9162 14.1005 34.0865 11.0499 37.9829 11.0499C41.8793 11.0499 45.0496 14.1005 45.0496 17.8499C45.0496 21.5993 41.8792 24.6499 37.9829 24.6499Z" fill="black" fill-opacity="0.35"/>
</svg>
