<svg width="99" height="99" viewBox="0 0 99 99" fill="none" xmlns="http://www.w3.org/2000/svg">
<path d="M3.84734 91.6736C2.42554 91.6736 1.14368 92.5344 0.599642 93.8545C0.0556029 95.1745 0.356458 96.6941 1.36206 97.7043C2.75273 99.0394 4.94215 99.0394 6.33281 97.7043C7.33822 96.6941 7.63927 95.1745 7.09523 93.8545C6.551 92.5342 5.26915 91.6736 3.84734 91.6736Z" fill="#DB1414"/>
<path d="M7.38379 89.1541C7.90745 89.439 8.38997 89.7949 8.81751 90.2114C9.23198 90.6395 9.5907 91.1188 9.88521 91.6377L20.1725 81.299L17.6871 78.8013L7.38379 89.1541Z" fill="#DB1414"/>
<path d="M30.1157 81.299H30.1155L24.0113 75.1646L23.9948 75.1534L23.9838 75.1366L23.9017 75.0543L16.4451 67.5604C15.7582 66.8742 14.6483 66.876 13.9633 67.5641C13.2784 68.2522 13.2762 69.3675 13.9589 70.0581L28.8729 85.0454C29.5597 85.7345 30.6722 85.7345 31.3591 85.0454C32.0433 84.3548 32.0429 83.2382 31.3583 82.5477L30.1157 81.299Z" fill="#DB1414"/>
<path d="M37.1016 46.8589L47.0563 36.8834L11.4572 1.21074L0.517578 0.208496L1.5155 11.1994L37.1016 46.8589Z" fill="#DB1414"/>
<path d="M78.918 81.2988L89.2053 91.6377C89.4996 91.1186 89.8584 90.6393 90.273 90.2112C90.7007 89.7947 91.1831 89.4388 91.7067 89.1539L81.4032 78.8013L78.918 81.2988Z" fill="#DB1414"/>
<path d="M98.4915 93.8545C97.9475 92.5344 96.6656 91.6736 95.2438 91.6736C93.822 91.6736 92.5402 92.5344 91.9961 93.8545C91.4521 95.1745 91.7529 96.6941 92.7585 97.7043C94.1492 99.0394 96.3386 99.0394 97.7293 97.7043C98.7347 96.6939 99.0356 95.1745 98.4915 93.8545Z" fill="#DB1414"/>
<path d="M60.7456 48.1056L60.7527 48.1009L97.5818 11.195L98.5757 0.205811L87.6369 1.20458L50.7949 38.1237L50.7903 38.1306L50.7832 38.1355L38.3487 50.5959L38.3462 50.5998L38.3422 50.6023L21.418 67.5622L25.2409 71.4039L41.2727 55.2932C41.9607 54.6142 43.0647 54.6192 43.7468 55.3044C44.4287 55.9897 44.4337 57.0991 43.758 57.7907L27.7261 73.9016L31.3606 77.554L48.2983 60.5811L48.3014 60.5766L48.306 60.5736L60.7408 48.1127L60.7456 48.1056Z" fill="#DB1414"/>
<path d="M85.132 67.5599C84.4455 66.8702 83.3325 66.8704 82.6462 67.5602L81.4182 68.7943L81.406 68.8125L75.0973 75.1519L75.0963 75.1532L75.095 75.1542L68.9799 81.299L68.9645 81.3094L67.732 82.548C67.0478 83.2382 67.0492 84.3548 67.7347 85.0437C68.4202 85.7326 69.5314 85.7334 70.2183 85.0456L85.1324 70.0583C85.8187 69.3679 85.8185 68.2495 85.132 67.5599Z" fill="#DB1414"/>
<path d="M71.3649 73.9009L64.1213 66.6217C63.4456 65.9303 63.4506 64.8208 64.1324 64.1354C64.8143 63.4502 65.9183 63.4452 66.6066 64.1242L73.8501 71.4032L77.6726 67.5621L61.9907 51.8477L52.0352 61.8239L67.7323 77.5508L71.3649 73.9009Z" fill="#DB1414"/>
</svg>
