<svg width="99" height="99" viewBox="0 0 99 99" fill="none" xmlns="http://www.w3.org/2000/svg">
<path d="M90.0906 21.9382L88.618 22.4073L80.7761 23.1094L78.5611 26.664L76.9538 26.1508L70.7128 20.4962L69.8074 17.5555L68.5949 14.4197L64.6724 10.884L60.0449 9.97412L59.9384 12.1025L64.4719 16.548L66.69 19.1738L64.1962 20.4836L62.166 19.8822L59.1238 18.6071L59.2272 16.1419L55.2357 14.4921L53.9104 20.2884L49.8876 21.2046L50.2855 24.438L55.5271 25.4518L56.4325 20.2852L60.7592 20.9275L62.7706 22.1113H65.9976L68.2064 26.5569L74.062 32.5263L73.6328 34.8467L68.9114 34.2422L60.753 38.3824L54.8786 45.4632L54.1141 48.5991H52.0056L48.0768 46.7793L44.2607 48.5991L45.21 52.6448L46.8705 50.7211L49.7905 50.6298L49.5869 54.2631L52.0056 54.9747L54.4211 57.7012L58.3656 56.5867L62.8709 57.3013L68.103 58.715L70.716 59.0235L75.1461 64.0768L83.6961 69.13L78.1663 79.7465L72.3295 82.4731L70.1144 88.5401L61.6678 94.2073L60.7686 97.4753C82.3614 92.2489 98.4244 72.757 98.4244 49.4523C98.4181 39.2734 95.3478 29.7998 90.0906 21.9382Z" fill="#DB1414"/>
<path d="M54.875 75.3009L51.2908 68.6231L54.5805 61.7343L51.2908 60.7457L47.597 57.018L39.4136 55.173L36.6972 49.4617V52.8526H35.5004L28.448 43.2436V35.3505L23.2785 26.9032L15.07 28.3735H9.54021L6.75809 26.5412L10.3078 23.7139L6.76749 24.5356C2.50031 31.8589 0.0126953 40.3565 0.0126953 49.4586C0.0126953 76.7649 22.041 98.911 49.2168 98.911C51.3096 98.911 53.3618 98.7252 55.392 98.4797L54.8782 92.4882C54.8782 92.4882 57.1371 83.5907 57.1371 83.2885C57.1339 82.9831 54.875 75.3009 54.875 75.3009Z" fill="#DB1414"/>
<path d="M18.2961 15.9468L27.0373 14.7221L31.0663 12.5024L35.5998 13.8153L42.8433 13.4123L45.3247 9.49252L48.9433 10.0907L57.7315 9.26269L60.1533 6.58022L63.5683 4.28816L68.3994 5.0186L70.1601 4.75098C63.797 1.74108 56.7164 0 49.2128 0C33.9393 0 20.2825 6.99582 11.2656 17.9807H11.2907L18.2961 15.9468ZM51.2931 4.91785L56.3185 2.13779L59.5455 4.0111L54.8741 7.58457L50.4127 8.0348L48.4045 6.72505L51.2931 4.91785ZM36.4081 5.324L38.6263 6.25279L41.5306 5.324L43.1128 8.07888L36.4081 9.84829L33.1842 7.95294C33.1811 7.95294 36.3361 5.91276 36.4081 5.324Z" fill="#DB1414"/>
</svg>
